<svg xmlns="http://www.w3.org/2000/svg" xmlns:xlink="http://www.w3.org/1999/xlink" width="291" zoomAndPan="magnify" viewBox="0 0 218.25 59.249999" height="79" preserveAspectRatio="xMidYMid meet" version="1.0"><defs><g/><clipPath id="a066378352"><path d="M 2 1.792969 L 53 1.792969 L 53 57.824219 L 2 57.824219 Z M 2 1.792969 " clip-rule="nonzero"/></clipPath><clipPath id="dd1096963c"><path d="M 3 3.78125 L 51 3.78125 L 51 55.800781 L 3 55.800781 Z M 3 3.78125 " clip-rule="nonzero"/></clipPath><clipPath id="b8223528c3"><path d="M 5 5 L 50 5 L 50 54.316406 L 5 54.316406 Z M 5 5 " clip-rule="nonzero"/></clipPath><clipPath id="797b22d3a3"><path d="M 5 4.972656 L 50 4.972656 L 50 54.316406 L 5 54.316406 Z M 5 4.972656 " clip-rule="nonzero"/></clipPath><clipPath id="b9bfd23fe1"><path d="M 6 5.933594 L 49 5.933594 L 49 53.003906 L 6 53.003906 Z M 6 5.933594 " clip-rule="nonzero"/></clipPath><clipPath id="da4fd57685"><path d="M 5 39.53125 L 50 39.53125 L 50 54.316406 L 5 54.316406 Z M 5 39.53125 " clip-rule="nonzero"/></clipPath><clipPath id="40fa4e5148"><path d="M 34.386719 17.382812 L 42.410156 17.382812 L 42.410156 38.109375 L 34.386719 38.109375 Z M 34.386719 17.382812 " clip-rule="nonzero"/></clipPath><clipPath id="5f6dbf4ff1"><path d="M 12.273438 17.382812 L 20.296875 17.382812 L 20.296875 38.109375 L 12.273438 38.109375 Z M 12.273438 17.382812 " clip-rule="nonzero"/></clipPath><clipPath id="7c153c8a6d"><path d="M 20.769531 46.390625 L 21.972656 46.390625 L 21.972656 47.59375 L 20.769531 47.59375 Z M 20.769531 46.390625 " clip-rule="nonzero"/></clipPath><clipPath id="73e3c56b7a"><path d="M 32.664062 46.390625 L 33.867188 46.390625 L 33.867188 47.59375 L 32.664062 47.59375 Z M 32.664062 46.390625 " clip-rule="nonzero"/></clipPath><clipPath id="e691c021fb"><path d="M 20 26 L 35 26 L 35 36.765625 L 20 36.765625 Z M 20 26 " clip-rule="nonzero"/></clipPath><clipPath id="40db08cba1"><path d="M 21 18.714844 L 34 18.714844 L 34 23 L 21 23 Z M 21 18.714844 " clip-rule="nonzero"/></clipPath><clipPath id="f3131b4d92"><path d="M 18.335938 23 L 36.390625 23 L 36.390625 26 L 18.335938 26 Z M 18.335938 23 " clip-rule="nonzero"/></clipPath></defs><g fill="#ffffff" fill-opacity="1"><g transform="translate(58.067252, 30.433556)"><g><path d="M 18.328125 0 L 14.890625 0 L 14.875 -9.9375 L 11.203125 -1.53125 L 8.671875 -1.53125 L 5 -9.9375 L 5 0 L 1.53125 0 L 1.53125 -15.3125 L 5.78125 -15.3125 L 9.9375 -6.203125 L 14.09375 -15.3125 L 18.328125 -15.3125 Z M 18.328125 0 "/></g></g></g><g fill="#ffffff" fill-opacity="1"><g transform="translate(79.625193, 30.433556)"><g><path d="M 13.5 -12.234375 L 5.421875 -12.234375 L 5.421875 -9.203125 L 12.71875 -9.203125 L 12.71875 -6.140625 L 5.421875 -6.140625 L 5.421875 -3.0625 L 13.734375 -3.0625 L 13.734375 0 L 1.53125 0 L 1.53125 -15.296875 L 13.5 -15.296875 Z M 13.5 -12.234375 "/></g></g></g><g fill="#ffffff" fill-opacity="1"><g transform="translate(96.028641, 30.433556)"><g><path d="M 13.21875 -12.171875 L 8.609375 -12.171875 L 8.609375 0 L 4.71875 0 L 4.71875 -12.171875 L 0.15625 -12.171875 L 0.15625 -15.3125 L 13.21875 -15.3125 Z M 13.21875 -12.171875 "/></g></g></g><g fill="#ffffff" fill-opacity="1"><g transform="translate(111.0561, 30.433556)"><g><path d="M 11.6875 -2.8125 L 5 -2.8125 L 3.890625 0 L -0.109375 0 L 6.484375 -15.296875 L 10.484375 -15.296875 L 16.921875 0 L 12.78125 0 Z M 10.546875 -5.765625 L 8.359375 -11.421875 L 6.140625 -5.765625 Z M 10.546875 -5.765625 "/></g></g></g><g fill="#ffffff" fill-opacity="1"><g transform="translate(129.556294, 30.433556)"><g><path d="M 1.53125 -15.296875 L 8.1875 -15.296875 C 10.144531 -15.296875 11.660156 -14.832031 12.734375 -13.90625 C 13.804688 -12.976562 14.34375 -11.660156 14.34375 -9.953125 C 14.34375 -8.171875 13.804688 -6.78125 12.734375 -5.78125 C 11.660156 -4.789062 10.144531 -4.296875 8.1875 -4.296875 L 5.421875 -4.296875 L 5.421875 0 L 1.53125 0 Z M 5.421875 -12.234375 L 5.421875 -7.359375 L 8 -7.359375 C 8.851562 -7.359375 9.515625 -7.566406 9.984375 -7.984375 C 10.453125 -8.410156 10.6875 -9.023438 10.6875 -9.828125 C 10.6875 -10.617188 10.453125 -11.21875 9.984375 -11.625 C 9.515625 -12.03125 8.851562 -12.234375 8 -12.234375 Z M 5.421875 -12.234375 "/></g></g></g><g fill="#ffffff" fill-opacity="1"><g transform="translate(146.090789, 30.433556)"><g><path d="M 10.75 0 L 8.46875 -4.296875 L 5.421875 -4.296875 L 5.421875 0 L 1.53125 0 L 1.53125 -15.296875 L 8.359375 -15.296875 C 10.390625 -15.296875 11.957031 -14.832031 13.0625 -13.90625 C 14.164062 -12.976562 14.71875 -11.660156 14.71875 -9.953125 C 14.71875 -7.597656 13.796875 -5.960938 11.953125 -5.046875 L 15.15625 0 Z M 5.421875 -7.359375 L 8.359375 -7.359375 C 9.210938 -7.359375 9.867188 -7.566406 10.328125 -7.984375 C 10.796875 -8.410156 11.03125 -9.023438 11.03125 -9.828125 C 11.03125 -10.617188 10.796875 -11.21875 10.328125 -11.625 C 9.867188 -12.03125 9.210938 -12.234375 8.359375 -12.234375 L 5.421875 -12.234375 Z M 5.421875 -7.359375 "/></g></g></g><g fill="#ffffff" fill-opacity="1"><g transform="translate(163.586292, 30.433556)"><g><path d="M 8.78125 -15.421875 C 11.15625 -15.421875 13.128906 -14.679688 14.703125 -13.203125 C 16.273438 -11.722656 17.0625 -9.878906 17.0625 -7.671875 C 17.0625 -5.441406 16.269531 -3.578125 14.6875 -2.078125 C 13.101562 -0.578125 11.132812 0.171875 8.78125 0.171875 C 6.425781 0.171875 4.460938 -0.570312 2.890625 -2.0625 C 1.316406 -3.550781 0.53125 -5.421875 0.53125 -7.671875 C 0.53125 -9.898438 1.316406 -11.75 2.890625 -13.21875 C 4.460938 -14.6875 6.425781 -15.421875 8.78125 -15.421875 Z M 8.828125 -12.171875 C 7.628906 -12.171875 6.609375 -11.734375 5.765625 -10.859375 C 4.921875 -9.992188 4.5 -8.921875 4.5 -7.640625 C 4.5 -6.359375 4.925781 -5.273438 5.78125 -4.390625 C 6.632812 -3.515625 7.648438 -3.078125 8.828125 -3.078125 C 10.003906 -3.078125 11.003906 -3.515625 11.828125 -4.390625 C 12.648438 -5.273438 13.0625 -6.359375 13.0625 -7.640625 C 13.0625 -8.921875 12.648438 -9.992188 11.828125 -10.859375 C 11.003906 -11.734375 10.003906 -12.171875 8.828125 -12.171875 Z M 8.828125 -12.171875 "/></g></g></g><g fill="#ffffff" fill-opacity="1"><g transform="translate(182.850923, 30.433556)"><g><path d="M 1.53125 -15.296875 L 8.765625 -15.296875 C 10.484375 -15.296875 11.847656 -14.945312 12.859375 -14.25 C 13.867188 -13.5625 14.375 -12.632812 14.375 -11.46875 C 14.375 -10.664062 14.140625 -9.960938 13.671875 -9.359375 C 13.203125 -8.753906 12.5625 -8.335938 11.75 -8.109375 C 12.707031 -7.910156 13.46875 -7.460938 14.03125 -6.765625 C 14.601562 -6.066406 14.890625 -5.222656 14.890625 -4.234375 C 14.890625 -2.941406 14.363281 -1.910156 13.3125 -1.140625 C 12.257812 -0.378906 10.828125 0 9.015625 0 L 1.53125 0 Z M 5.390625 -12.3125 L 5.390625 -9.171875 L 8.546875 -9.171875 C 9.109375 -9.171875 9.554688 -9.3125 9.890625 -9.59375 C 10.222656 -9.882812 10.390625 -10.273438 10.390625 -10.765625 C 10.390625 -11.242188 10.222656 -11.617188 9.890625 -11.890625 C 9.554688 -12.171875 9.109375 -12.3125 8.546875 -12.3125 Z M 5.390625 -6.375 L 5.390625 -3 L 8.546875 -3 C 9.273438 -3 9.84375 -3.148438 10.25 -3.453125 C 10.664062 -3.753906 10.875 -4.175781 10.875 -4.71875 C 10.875 -5.226562 10.664062 -5.628906 10.25 -5.921875 C 9.84375 -6.222656 9.273438 -6.375 8.546875 -6.375 Z M 5.390625 -6.375 "/></g></g></g><g fill="#ffffff" fill-opacity="1"><g transform="translate(200.149855, 30.433556)"><g><path d="M 13.5 -12.234375 L 5.421875 -12.234375 L 5.421875 -9.203125 L 12.71875 -9.203125 L 12.71875 -6.140625 L 5.421875 -6.140625 L 5.421875 -3.0625 L 13.734375 -3.0625 L 13.734375 0 L 1.53125 0 L 1.53125 -15.296875 L 13.5 -15.296875 Z M 13.5 -12.234375 "/></g></g></g><g fill="#ffffff" fill-opacity="1"><g transform="translate(58.067252, 50.067826)"><g><path d="M 4.0625 -8.90625 C 5.207031 -8.90625 6.238281 -8.597656 7.15625 -7.984375 L 6.546875 -6.671875 C 5.640625 -7.222656 4.773438 -7.5 3.953125 -7.5 C 3.503906 -7.5 3.148438 -7.414062 2.890625 -7.25 C 2.640625 -7.09375 2.515625 -6.867188 2.515625 -6.578125 C 2.515625 -6.285156 2.628906 -6.035156 2.859375 -5.828125 C 3.097656 -5.617188 3.394531 -5.46875 3.75 -5.375 C 4.101562 -5.28125 4.484375 -5.15625 4.890625 -5 C 5.304688 -4.851562 5.691406 -4.695312 6.046875 -4.53125 C 6.398438 -4.375 6.691406 -4.117188 6.921875 -3.765625 C 7.148438 -3.421875 7.265625 -3 7.265625 -2.5 C 7.265625 -1.726562 6.957031 -1.109375 6.34375 -0.640625 C 5.726562 -0.179688 4.925781 0.046875 3.9375 0.046875 C 3.257812 0.046875 2.601562 -0.078125 1.96875 -0.328125 C 1.34375 -0.578125 0.796875 -0.914062 0.328125 -1.34375 L 0.96875 -2.640625 C 1.414062 -2.222656 1.90625 -1.898438 2.4375 -1.671875 C 2.976562 -1.453125 3.488281 -1.34375 3.96875 -1.34375 C 4.488281 -1.34375 4.894531 -1.4375 5.1875 -1.625 C 5.476562 -1.820312 5.625 -2.085938 5.625 -2.421875 C 5.625 -2.722656 5.503906 -2.976562 5.265625 -3.1875 C 5.023438 -3.394531 4.726562 -3.546875 4.375 -3.640625 C 4.019531 -3.734375 3.632812 -3.847656 3.21875 -3.984375 C 2.8125 -4.128906 2.429688 -4.28125 2.078125 -4.4375 C 1.722656 -4.59375 1.425781 -4.84375 1.1875 -5.1875 C 0.957031 -5.53125 0.84375 -5.945312 0.84375 -6.4375 C 0.84375 -7.1875 1.132812 -7.785156 1.71875 -8.234375 C 2.3125 -8.679688 3.09375 -8.90625 4.0625 -8.90625 Z M 4.0625 -8.90625 "/></g></g></g><g fill="#ffffff" fill-opacity="1"><g transform="translate(69.939347, 50.067826)"><g><path d="M 1.765625 -7.59375 C 2.671875 -8.445312 3.785156 -8.875 5.109375 -8.875 C 6.429688 -8.875 7.539062 -8.445312 8.4375 -7.59375 C 9.34375 -6.738281 9.796875 -5.679688 9.796875 -4.421875 C 9.796875 -3.160156 9.34375 -2.097656 8.4375 -1.234375 C 7.539062 -0.367188 6.429688 0.0625 5.109375 0.0625 C 3.785156 0.0625 2.671875 -0.367188 1.765625 -1.234375 C 0.867188 -2.097656 0.421875 -3.160156 0.421875 -4.421875 C 0.421875 -5.679688 0.867188 -6.738281 1.765625 -7.59375 Z M 5.125 -7.53125 C 4.25 -7.53125 3.5 -7.226562 2.875 -6.625 C 2.25 -6.03125 1.9375 -5.296875 1.9375 -4.421875 C 1.9375 -3.546875 2.25 -2.800781 2.875 -2.1875 C 3.507812 -1.582031 4.257812 -1.28125 5.125 -1.28125 C 5.988281 -1.28125 6.726562 -1.582031 7.34375 -2.1875 C 7.957031 -2.800781 8.265625 -3.546875 8.265625 -4.421875 C 8.265625 -5.296875 7.957031 -6.03125 7.34375 -6.625 C 6.726562 -7.226562 5.988281 -7.53125 5.125 -7.53125 Z M 5.125 -7.53125 "/></g></g></g><g fill="#ffffff" fill-opacity="1"><g transform="translate(84.185621, 50.067826)"><g><path d="M 2.65625 -1.34375 L 6.484375 -1.34375 L 6.484375 0 L 1.15625 0 L 1.15625 -8.84375 L 2.65625 -8.84375 Z M 2.65625 -1.34375 "/></g></g></g><g fill="#ffffff" fill-opacity="1"><g transform="translate(94.946396, 50.067826)"><g><path d="M 8.671875 -8.84375 L 8.671875 -3.65625 C 8.671875 -2.507812 8.328125 -1.601562 7.640625 -0.9375 C 6.960938 -0.269531 6.023438 0.0625 4.828125 0.0625 C 3.640625 0.0625 2.703125 -0.269531 2.015625 -0.9375 C 1.328125 -1.601562 0.984375 -2.507812 0.984375 -3.65625 L 0.984375 -8.84375 L 2.46875 -8.84375 L 2.46875 -3.65625 C 2.46875 -2.914062 2.679688 -2.332031 3.109375 -1.90625 C 3.535156 -1.488281 4.113281 -1.28125 4.84375 -1.28125 C 5.570312 -1.28125 6.144531 -1.488281 6.5625 -1.90625 C 6.976562 -2.320312 7.1875 -2.90625 7.1875 -3.65625 L 7.1875 -8.84375 Z M 8.671875 -8.84375 "/></g></g></g><g fill="#ffffff" fill-opacity="1"><g transform="translate(108.611756, 50.067826)"><g><path d="M 7.203125 -7.5 L 4.390625 -7.5 L 4.390625 0 L 2.90625 0 L 2.90625 -7.5 L 0.109375 -7.5 L 0.109375 -8.84375 L 7.203125 -8.84375 Z M 7.203125 -7.5 "/></g></g></g><g fill="#ffffff" fill-opacity="1"><g transform="translate(119.940826, 50.067826)"><g><path d="M 2.65625 0 L 1.15625 0 L 1.15625 -8.84375 L 2.65625 -8.84375 Z M 2.65625 0 "/></g></g></g><g fill="#ffffff" fill-opacity="1"><g transform="translate(127.771776, 50.067826)"><g><path d="M 1.765625 -7.59375 C 2.671875 -8.445312 3.785156 -8.875 5.109375 -8.875 C 6.429688 -8.875 7.539062 -8.445312 8.4375 -7.59375 C 9.34375 -6.738281 9.796875 -5.679688 9.796875 -4.421875 C 9.796875 -3.160156 9.34375 -2.097656 8.4375 -1.234375 C 7.539062 -0.367188 6.429688 0.0625 5.109375 0.0625 C 3.785156 0.0625 2.671875 -0.367188 1.765625 -1.234375 C 0.867188 -2.097656 0.421875 -3.160156 0.421875 -4.421875 C 0.421875 -5.679688 0.867188 -6.738281 1.765625 -7.59375 Z M 5.125 -7.53125 C 4.25 -7.53125 3.5 -7.226562 2.875 -6.625 C 2.25 -6.03125 1.9375 -5.296875 1.9375 -4.421875 C 1.9375 -3.546875 2.25 -2.800781 2.875 -2.1875 C 3.507812 -1.582031 4.257812 -1.28125 5.125 -1.28125 C 5.988281 -1.28125 6.726562 -1.582031 7.34375 -2.1875 C 7.957031 -2.800781 8.265625 -3.546875 8.265625 -4.421875 C 8.265625 -5.296875 7.957031 -6.03125 7.34375 -6.625 C 6.726562 -7.226562 5.988281 -7.53125 5.125 -7.53125 Z M 5.125 -7.53125 "/></g></g></g><g fill="#ffffff" fill-opacity="1"><g transform="translate(142.018053, 50.067826)"><g><path d="M 8.828125 0 L 7.359375 0 L 2.65625 -6.34375 L 2.65625 0 L 1.15625 0 L 1.15625 -8.84375 L 2.625 -8.84375 L 7.359375 -2.484375 L 7.359375 -8.84375 L 8.828125 -8.84375 Z M 8.828125 0 "/></g></g></g><g fill="#ffffff" fill-opacity="1"><g transform="translate(156.037015, 50.067826)"><g><path d="M 4.0625 -8.90625 C 5.207031 -8.90625 6.238281 -8.597656 7.15625 -7.984375 L 6.546875 -6.671875 C 5.640625 -7.222656 4.773438 -7.5 3.953125 -7.5 C 3.503906 -7.5 3.148438 -7.414062 2.890625 -7.25 C 2.640625 -7.09375 2.515625 -6.867188 2.515625 -6.578125 C 2.515625 -6.285156 2.628906 -6.035156 2.859375 -5.828125 C 3.097656 -5.617188 3.394531 -5.46875 3.75 -5.375 C 4.101562 -5.28125 4.484375 -5.15625 4.890625 -5 C 5.304688 -4.851562 5.691406 -4.695312 6.046875 -4.53125 C 6.398438 -4.375 6.691406 -4.117188 6.921875 -3.765625 C 7.148438 -3.421875 7.265625 -3 7.265625 -2.5 C 7.265625 -1.726562 6.957031 -1.109375 6.34375 -0.640625 C 5.726562 -0.179688 4.925781 0.046875 3.9375 0.046875 C 3.257812 0.046875 2.601562 -0.078125 1.96875 -0.328125 C 1.34375 -0.578125 0.796875 -0.914062 0.328125 -1.34375 L 0.96875 -2.640625 C 1.414062 -2.222656 1.90625 -1.898438 2.4375 -1.671875 C 2.976562 -1.453125 3.488281 -1.34375 3.96875 -1.34375 C 4.488281 -1.34375 4.894531 -1.4375 5.1875 -1.625 C 5.476562 -1.820312 5.625 -2.085938 5.625 -2.421875 C 5.625 -2.722656 5.503906 -2.976562 5.265625 -3.1875 C 5.023438 -3.394531 4.726562 -3.546875 4.375 -3.640625 C 4.019531 -3.734375 3.632812 -3.847656 3.21875 -3.984375 C 2.8125 -4.128906 2.429688 -4.28125 2.078125 -4.4375 C 1.722656 -4.59375 1.425781 -4.84375 1.1875 -5.1875 C 0.957031 -5.53125 0.84375 -5.945312 0.84375 -6.4375 C 0.84375 -7.1875 1.132812 -7.785156 1.71875 -8.234375 C 2.3125 -8.679688 3.09375 -8.90625 4.0625 -8.90625 Z M 4.0625 -8.90625 "/></g></g></g><g clip-path="url(#a066378352)"><path fill="#0d71d3" d="M 52.007812 9.585938 L 27.347656 1.917969 L 2.683594 9.585938 C 2.683594 9.585938 -3.316406 48.050781 27.347656 57.644531 C 58 48.050781 52.007812 9.585938 52.007812 9.585938 Z M 52.007812 9.585938 " fill-opacity="1" fill-rule="nonzero"/><path fill="#0d71d3" d="M 27.347656 57.765625 L 27.3125 57.757812 C 20.292969 55.5625 14.628906 51.65625 10.464844 46.160156 C 7.140625 41.757812 4.765625 36.339844 3.402344 30.039062 C 2.191406 24.441406 2.035156 19.167969 2.101562 15.742188 C 2.179688 12.027344 2.5625 9.585938 2.5625 9.5625 L 2.574219 9.484375 L 27.347656 1.792969 L 52.109375 9.496094 L 52.121094 9.574219 C 52.121094 9.597656 52.5 12.027344 52.582031 15.753906 C 52.660156 19.191406 52.492188 24.453125 51.28125 30.050781 C 49.925781 36.339844 47.542969 41.769531 44.21875 46.167969 C 40.054688 51.667969 34.390625 55.574219 27.371094 57.765625 Z M 2.796875 9.675781 C 2.730469 10.109375 2.425781 12.40625 2.347656 15.753906 C 2.269531 19.179688 2.4375 24.417969 3.636719 29.992188 C 4.992188 36.261719 7.351562 41.648438 10.65625 46.011719 C 14.777344 51.464844 20.394531 55.328125 27.347656 57.511719 C 34.300781 55.328125 39.90625 51.464844 44.039062 46.011719 C 47.339844 41.648438 49.703125 36.25 51.058594 29.992188 C 52.253906 24.417969 52.421875 19.167969 52.34375 15.753906 C 52.265625 12.40625 51.964844 10.109375 51.898438 9.675781 L 27.347656 2.039062 Z M 2.796875 9.675781 " fill-opacity="1" fill-rule="nonzero"/></g><g clip-path="url(#dd1096963c)"><path fill="#ededed" d="M 50.257812 11.019531 L 27.347656 3.894531 L 4.433594 11.019531 C 4.433594 11.019531 -1.140625 46.753906 27.347656 55.667969 C 55.824219 46.753906 50.257812 11.019531 50.257812 11.019531 Z M 50.257812 11.019531 " fill-opacity="1" fill-rule="nonzero"/><path fill="#ededed" d="M 27.347656 55.78125 L 27.316406 55.769531 C 20.796875 53.734375 15.53125 50.101562 11.664062 44.996094 C 8.574219 40.910156 6.371094 35.875 5.101562 30.019531 C 3.976562 24.820312 3.832031 19.921875 3.894531 16.738281 C 3.96875 13.285156 4.320312 11.019531 4.320312 10.996094 L 4.332031 10.925781 L 27.347656 3.78125 L 50.351562 10.9375 L 50.363281 11.007812 C 50.363281 11.027344 50.714844 13.285156 50.789062 16.75 C 50.863281 19.941406 50.707031 24.832031 49.582031 30.03125 C 48.324219 35.875 46.109375 40.917969 43.019531 45.007812 C 39.152344 50.113281 33.890625 53.742188 27.367188 55.78125 Z M 4.539062 11.101562 C 4.476562 11.507812 4.195312 13.640625 4.125 16.75 C 4.050781 19.933594 4.207031 24.800781 5.320312 29.980469 C 6.578125 35.800781 8.773438 40.804688 11.839844 44.863281 C 15.667969 49.925781 20.886719 53.515625 27.347656 55.542969 C 33.804688 53.515625 39.015625 49.925781 42.855469 44.863281 C 45.921875 40.804688 48.117188 35.792969 49.375 29.980469 C 50.488281 24.800781 50.644531 19.921875 50.570312 16.75 C 50.5 13.640625 50.21875 11.507812 50.15625 11.101562 L 27.347656 4.007812 Z M 4.539062 11.101562 " fill-opacity="1" fill-rule="nonzero"/></g><g clip-path="url(#b8223528c3)"><path fill="#06203f" d="M 49.089844 11.839844 L 27.347656 5.078125 L 5.601562 11.839844 C 5.601562 11.839844 0.3125 45.753906 27.347656 54.214844 C 54.371094 45.753906 49.089844 11.839844 49.089844 11.839844 Z M 49.089844 11.839844 " fill-opacity="1" fill-rule="nonzero"/></g><g clip-path="url(#797b22d3a3)"><path fill="#06203f" d="M 27.347656 54.324219 L 27.316406 54.3125 C 21.128906 52.378906 16.132812 48.933594 12.460938 44.085938 C 9.53125 40.207031 7.4375 35.429688 6.234375 29.875 C 5.167969 24.9375 5.03125 20.289062 5.089844 17.269531 C 5.15625 13.992188 5.492188 11.839844 5.492188 11.820312 L 5.503906 11.75 L 27.347656 4.972656 L 49.179688 11.761719 L 49.191406 11.832031 C 49.191406 11.851562 49.527344 13.992188 49.59375 17.28125 C 49.664062 20.308594 49.515625 24.949219 48.449219 29.882812 C 47.253906 35.429688 45.152344 40.21875 42.222656 44.097656 C 38.550781 48.945312 33.554688 52.386719 27.367188 54.324219 Z M 5.699219 11.917969 C 5.640625 12.304688 5.375 14.328125 5.304688 17.28125 C 5.238281 20.300781 5.386719 24.917969 6.441406 29.835938 C 7.636719 35.363281 9.71875 40.109375 12.628906 43.960938 C 16.261719 48.765625 21.21875 52.171875 27.347656 54.097656 C 33.476562 52.171875 38.421875 48.765625 42.0625 43.960938 C 44.976562 40.109375 47.058594 35.351562 48.253906 29.835938 C 49.308594 24.917969 49.457031 20.289062 49.386719 17.28125 C 49.316406 14.328125 49.050781 12.304688 48.992188 11.917969 L 27.347656 5.1875 Z M 5.699219 11.917969 " fill-opacity="1" fill-rule="nonzero"/></g><path fill="#081c34" d="M 48.113281 12.492188 L 27.347656 6.035156 L 6.582031 12.492188 C 6.582031 12.492188 1.527344 44.882812 27.347656 52.960938 C 53.15625 44.882812 48.113281 12.492188 48.113281 12.492188 Z M 48.113281 12.492188 " fill-opacity="1" fill-rule="nonzero"/><g clip-path="url(#b9bfd23fe1)"><path fill="#081c34" d="M 27.347656 53.0625 L 27.316406 53.054688 C 21.40625 51.207031 16.636719 47.917969 13.132812 43.289062 C 10.332031 39.582031 8.332031 35.019531 7.183594 29.714844 C 6.164062 25 6.035156 20.5625 6.089844 17.675781 C 6.15625 14.546875 6.476562 12.492188 6.476562 12.472656 L 6.484375 12.40625 L 27.347656 5.933594 L 48.195312 12.417969 L 48.207031 12.484375 C 48.207031 12.503906 48.527344 14.546875 48.59375 17.6875 C 48.660156 20.582031 48.515625 25.011719 47.5 29.722656 C 46.359375 35.019531 44.351562 39.59375 41.550781 43.296875 C 38.046875 47.925781 33.273438 51.214844 27.363281 53.0625 Z M 6.675781 12.566406 C 6.617188 12.9375 6.363281 14.867188 6.296875 17.6875 C 6.230469 20.570312 6.371094 24.980469 7.382812 29.675781 C 8.523438 34.957031 10.511719 39.488281 13.292969 43.164062 C 16.761719 47.757812 21.492188 51.007812 27.347656 52.847656 C 33.199219 51.007812 37.921875 47.757812 41.402344 43.164062 C 44.179688 39.488281 46.171875 34.945312 47.3125 29.675781 C 48.320312 24.980469 48.460938 20.5625 48.394531 17.6875 C 48.328125 14.867188 48.074219 12.9375 48.019531 12.566406 L 27.347656 6.140625 Z M 6.675781 12.566406 " fill-opacity="1" fill-rule="nonzero"/></g><g clip-path="url(#da4fd57685)"><path fill="#081c34" d="M 49.089844 11.839844 L 27.347656 5.078125 L 5.601562 11.839844 C 5.601562 11.839844 0.3125 45.753906 27.347656 54.214844 C 54.371094 45.753906 49.089844 11.839844 49.089844 11.839844 Z M 49.089844 11.839844 " fill-opacity="1" fill-rule="nonzero"/><path fill="#081c34" d="M 27.347656 54.324219 L 27.316406 54.3125 C 21.128906 52.378906 16.132812 48.933594 12.460938 44.085938 C 9.53125 40.207031 7.4375 35.429688 6.234375 29.875 C 5.167969 24.9375 5.03125 20.289062 5.089844 17.269531 C 5.15625 13.992188 5.492188 11.839844 5.492188 11.820312 L 5.503906 11.75 L 27.347656 4.972656 L 49.179688 11.761719 L 49.191406 11.832031 C 49.191406 11.851562 49.527344 13.992188 49.59375 17.28125 C 49.664062 20.308594 49.515625 24.949219 48.449219 29.882812 C 47.253906 35.429688 45.152344 40.21875 42.222656 44.097656 C 38.550781 48.945312 33.554688 52.386719 27.367188 54.324219 Z M 5.699219 11.917969 C 5.640625 12.304688 5.375 14.328125 5.304688 17.28125 C 5.238281 20.300781 5.386719 24.917969 6.441406 29.835938 C 7.636719 35.363281 9.71875 40.109375 12.628906 43.960938 C 16.261719 48.765625 21.21875 52.171875 27.347656 54.097656 C 33.476562 52.171875 38.421875 48.765625 42.0625 43.960938 C 44.976562 40.109375 47.058594 35.351562 48.253906 29.835938 C 49.308594 24.917969 49.457031 20.289062 49.386719 17.28125 C 49.316406 14.328125 49.050781 12.304688 48.992188 11.917969 L 27.347656 5.1875 Z M 5.699219 11.917969 " fill-opacity="1" fill-rule="nonzero"/></g><g fill="#edebee" fill-opacity="1"><g transform="translate(8.796291, 20.343094)"><g><path d="M 4.625 -3 L 3.578125 -2.328125 L 2.796875 -3.46875 L 2.078125 -4.40625 L 2.015625 -4.359375 L 2.546875 -2.15625 L 1.65625 -1.578125 L -0.03125 -3.046875 L -0.09375 -3 L 0.390625 -2.078125 L 1.15625 -0.75 L 0.15625 -0.109375 L -1.96875 -4.21875 L -0.59375 -5.109375 L -0.125 -4.625 L 1.140625 -3.4375 L 1.203125 -3.484375 L 0.6875 -5.109375 L 0.453125 -5.78125 L 1.8125 -6.671875 Z M 4.625 -3 "/></g></g></g><g fill="#edebee" fill-opacity="1"><g transform="translate(13.679419, 17.27034)"><g><path d="M 2.921875 -2.53125 L 3.03125 -2.46875 L 3.359375 -1.46875 L 0.390625 -0.171875 L -0.09375 -1.453125 L -1.453125 -4.390625 L 1.578125 -5.71875 L 1.671875 -5.671875 L 2.015625 -4.671875 L 0.96875 -4.265625 L 0.296875 -3.96875 L 0.546875 -3.359375 L 1.1875 -3.640625 L 1.84375 -3.953125 L 1.96875 -3.890625 L 2.296875 -2.921875 L 1.546875 -2.59375 L 0.953125 -2.34375 L 1.03125 -2.09375 L 1.21875 -1.734375 L 1.859375 -2 Z M 2.921875 -2.53125 "/></g></g></g><g fill="#edebee" fill-opacity="1"><g transform="translate(17.296342, 15.696649)"><g><path d="M 2.25 -5.34375 L 2.46875 -4.328125 L 1.546875 -4.109375 L 1.46875 -4.09375 L 2 -2.140625 L 2.46875 -0.71875 L 1.09375 -0.3125 L 0.796875 -1.65625 L 0.15625 -3.703125 L 0.0625 -3.6875 L -0.828125 -3.375 L -0.9375 -3.4375 L -1.140625 -4.46875 L 2.15625 -5.421875 Z M 2.25 -5.34375 "/></g></g></g><g fill="#edebee" fill-opacity="1"><g transform="translate(20.911666, 14.621603)"><g><path d="M 4.34375 -0.625 L 2.921875 -0.421875 L 2.6875 -1.15625 L 2.671875 -1.171875 L 1.984375 -1.078125 L 1.40625 -0.96875 L 1.390625 -0.203125 L 0.015625 0 L 0.734375 -4.765625 L 2.453125 -5.015625 Z M 2.296875 -2.1875 L 1.78125 -3.625 L 1.71875 -3.609375 L 1.515625 -2.0625 L 1.921875 -2.109375 Z M 2.296875 -2.1875 "/></g></g></g><g fill="#edebee" fill-opacity="1"><g transform="translate(25.390959, 13.987187)"><g><path d="M 2.625 -4.59375 C 3.144531 -4.59375 3.539062 -4.46875 3.8125 -4.21875 C 4.09375 -3.96875 4.234375 -3.609375 4.234375 -3.140625 C 4.234375 -2.765625 4.144531 -2.4375 3.96875 -2.15625 C 3.800781 -1.882812 3.554688 -1.671875 3.234375 -1.515625 C 2.921875 -1.359375 2.5625 -1.28125 2.15625 -1.28125 L 1.8125 -1.28125 L 1.859375 0.015625 L 0.421875 0 L 0.5 -1.359375 L 0.4375 -4.609375 Z M 2.375 -2.28125 C 2.5 -2.351562 2.59375 -2.445312 2.65625 -2.5625 C 2.71875 -2.675781 2.75 -2.816406 2.75 -2.984375 C 2.75 -3.191406 2.695312 -3.34375 2.59375 -3.4375 C 2.488281 -3.539062 2.332031 -3.597656 2.125 -3.609375 L 1.875 -3.59375 L 1.84375 -2.3125 Z M 2.375 -2.28125 "/></g></g></g><g fill="#edebee" fill-opacity="1"><g transform="translate(29.673037, 13.999772)"><g><path d="M 3.703125 -1.265625 C 3.953125 -0.679688 4.210938 -0.140625 4.484375 0.359375 L 4.453125 0.515625 C 3.941406 0.578125 3.453125 0.585938 2.984375 0.546875 L 2.875 0.40625 L 2.8125 0.21875 C 2.78125 0.132812 2.726562 -0.03125 2.65625 -0.28125 C 2.582031 -0.53125 2.515625 -0.773438 2.453125 -1.015625 L 2 -1.078125 L 1.84375 0.28125 L 0.421875 0.0625 L 0.703125 -1.265625 L 1.125 -4.5 L 3.28125 -4.171875 C 3.789062 -4.085938 4.164062 -3.90625 4.40625 -3.625 C 4.65625 -3.34375 4.742188 -2.972656 4.671875 -2.515625 C 4.628906 -2.242188 4.519531 -2 4.34375 -1.78125 C 4.175781 -1.570312 3.960938 -1.398438 3.703125 -1.265625 Z M 3.171875 -2.59375 C 3.191406 -2.78125 3.160156 -2.925781 3.078125 -3.03125 C 2.992188 -3.132812 2.84375 -3.207031 2.625 -3.25 L 2.390625 -3.28125 L 2.1875 -2.109375 L 2.671875 -2 C 2.816406 -2.039062 2.925781 -2.109375 3 -2.203125 C 3.082031 -2.296875 3.140625 -2.425781 3.171875 -2.59375 Z M 3.171875 -2.59375 "/></g></g></g><g fill="#edebee" fill-opacity="1"><g transform="translate(34.161102, 14.687728)"><g><path d="M 3.734375 -3.734375 C 4.378906 -3.523438 4.8125 -3.175781 5.03125 -2.6875 C 5.257812 -2.195312 5.265625 -1.613281 5.046875 -0.9375 C 4.804688 -0.164062 4.425781 0.363281 3.90625 0.65625 C 3.394531 0.945312 2.785156 0.976562 2.078125 0.75 C 1.441406 0.550781 1.015625 0.203125 0.796875 -0.296875 C 0.578125 -0.796875 0.578125 -1.390625 0.796875 -2.078125 C 1.035156 -2.835938 1.410156 -3.359375 1.921875 -3.640625 C 2.429688 -3.921875 3.035156 -3.953125 3.734375 -3.734375 Z M 3.265625 -2.6875 C 3.097656 -2.75 2.957031 -2.757812 2.84375 -2.71875 C 2.726562 -2.6875 2.628906 -2.597656 2.546875 -2.453125 C 2.460938 -2.304688 2.375 -2.09375 2.28125 -1.8125 C 2.15625 -1.425781 2.082031 -1.128906 2.0625 -0.921875 C 2.050781 -0.722656 2.078125 -0.566406 2.140625 -0.453125 C 2.210938 -0.347656 2.34375 -0.269531 2.53125 -0.21875 C 2.707031 -0.15625 2.847656 -0.140625 2.953125 -0.171875 C 3.066406 -0.203125 3.164062 -0.289062 3.25 -0.4375 C 3.34375 -0.582031 3.4375 -0.800781 3.53125 -1.09375 C 3.644531 -1.46875 3.710938 -1.757812 3.734375 -1.96875 C 3.753906 -2.175781 3.726562 -2.332031 3.65625 -2.4375 C 3.582031 -2.550781 3.453125 -2.632812 3.265625 -2.6875 Z M 3.265625 -2.6875 "/></g></g></g><g fill="#edebee" fill-opacity="1"><g transform="translate(38.634108, 16.120312)"><g><path d="M 4.15625 -0.578125 C 4.375 -0.378906 4.503906 -0.171875 4.546875 0.046875 C 4.597656 0.265625 4.5625 0.492188 4.4375 0.734375 C 4.21875 1.160156 3.882812 1.382812 3.4375 1.40625 C 3 1.425781 2.429688 1.265625 1.734375 0.921875 C 1.347656 0.722656 0.894531 0.476562 0.375 0.1875 L 1.0625 -1 L 2.4375 -3.9375 L 4.28125 -3.015625 C 4.75 -2.785156 5.070312 -2.515625 5.25 -2.203125 C 5.425781 -1.890625 5.425781 -1.5625 5.25 -1.21875 C 5.144531 -1 4.992188 -0.835938 4.796875 -0.734375 C 4.609375 -0.628906 4.394531 -0.578125 4.15625 -0.578125 Z M 3.859375 -1.6875 C 3.941406 -1.84375 3.941406 -1.972656 3.859375 -2.078125 C 3.773438 -2.179688 3.59375 -2.300781 3.3125 -2.4375 L 3.265625 -2.46875 L 2.8125 -1.65625 L 3.265625 -1.390625 C 3.410156 -1.359375 3.53125 -1.367188 3.625 -1.421875 C 3.71875 -1.472656 3.796875 -1.5625 3.859375 -1.6875 Z M 2.390625 0.203125 C 2.554688 0.285156 2.710938 0.316406 2.859375 0.296875 C 3.003906 0.273438 3.113281 0.1875 3.1875 0.03125 C 3.226562 -0.0625 3.234375 -0.148438 3.203125 -0.234375 C 3.179688 -0.328125 3.113281 -0.429688 3 -0.546875 L 2.390625 -0.84375 L 2.234375 -0.5625 L 2 -0.03125 C 2.195312 0.09375 2.328125 0.171875 2.390625 0.203125 Z M 2.390625 0.203125 "/></g></g></g><g fill="#edebee" fill-opacity="1"><g transform="translate(42.691584, 18.174275)"><g><path d="M 3.6875 1.15625 L 3.6875 1.28125 L 3.015625 2.09375 L 0.34375 0.234375 L 1.171875 -0.84375 L 2.96875 -3.5625 L 5.703125 -1.671875 L 5.703125 -1.546875 L 5.03125 -0.75 L 4.140625 -1.421875 L 3.53125 -1.828125 L 3.140625 -1.3125 L 3.71875 -0.90625 L 4.34375 -0.515625 L 4.34375 -0.375 L 3.703125 0.421875 L 3.015625 -0.0625 L 2.484375 -0.421875 L 2.34375 -0.21875 L 2.109375 0.125 L 2.6875 0.515625 Z M 3.6875 1.15625 "/></g></g></g><g clip-path="url(#40fa4e5148)"><path fill="#ededed" d="M 12.777344 30.53125 L 12.761719 30.53125 L 12.761719 30.550781 C 12.804688 31.070312 13.042969 31.546875 13.429688 31.898438 C 13.816406 32.25 14.320312 32.4375 14.839844 32.425781 L 14.84375 32.425781 C 14.96875 32.8125 15.109375 33.203125 15.269531 33.582031 C 15.128906 33.394531 14.960938 33.242188 14.761719 33.113281 C 14.324219 32.828125 13.800781 32.71875 13.285156 32.8125 L 13.269531 32.816406 L 13.269531 32.835938 C 13.394531 33.339844 13.703125 33.78125 14.140625 34.0625 C 14.578125 34.347656 15.105469 34.457031 15.617188 34.363281 L 15.621094 34.363281 C 15.644531 34.410156 15.667969 34.453125 15.691406 34.5 C 15.851562 34.816406 16.03125 35.132812 16.230469 35.445312 C 16.058594 35.28125 15.863281 35.148438 15.648438 35.054688 C 15.167969 34.84375 14.636719 34.820312 14.140625 34.996094 L 14.125 35 L 14.132812 35.015625 C 14.335938 35.496094 14.707031 35.882812 15.1875 36.09375 C 15.664062 36.304688 16.195312 36.328125 16.691406 36.15625 L 16.699219 36.152344 C 16.941406 36.488281 17.199219 36.820312 17.46875 37.132812 C 17.273438 36.996094 17.058594 36.890625 16.828125 36.832031 C 16.324219 36.695312 15.792969 36.753906 15.332031 37.003906 L 15.320312 37.011719 L 15.328125 37.023438 C 15.601562 37.46875 16.03125 37.789062 16.535156 37.921875 C 17.039062 38.058594 17.570312 38 18.027344 37.75 L 18.035156 37.746094 C 18.515625 38.234375 19.027344 38.683594 19.5625 39.085938 L 19.578125 39.097656 L 19.742188 38.878906 L 19.730469 38.867188 C 19.203125 38.472656 18.707031 38.039062 18.25 37.566406 C 18.574219 37.164062 18.738281 36.660156 18.703125 36.140625 C 18.664062 35.621094 18.433594 35.136719 18.050781 34.78125 L 18.039062 34.773438 L 18.027344 34.785156 C 17.699219 35.191406 17.535156 35.699219 17.574219 36.21875 C 17.597656 36.570312 17.714844 36.90625 17.902344 37.199219 C 17.558594 36.816406 17.234375 36.417969 16.941406 36 C 17.324219 35.652344 17.566406 35.179688 17.609375 34.664062 C 17.65625 34.144531 17.5 33.632812 17.175781 33.21875 L 17.167969 33.203125 L 17.15625 33.214844 C 16.765625 33.5625 16.523438 34.042969 16.480469 34.558594 C 16.449219 34.917969 16.511719 35.269531 16.660156 35.589844 C 16.398438 35.195312 16.160156 34.785156 15.945312 34.367188 C 15.925781 34.324219 15.910156 34.289062 15.886719 34.25 C 16.320312 33.96875 16.636719 33.535156 16.761719 33.03125 C 16.886719 32.527344 16.816406 31.992188 16.5625 31.539062 L 16.554688 31.527344 L 16.542969 31.539062 C 16.101562 31.820312 15.789062 32.253906 15.660156 32.757812 C 15.574219 33.113281 15.582031 33.472656 15.683594 33.816406 C 15.46875 33.335938 15.28125 32.851562 15.125 32.359375 C 15.601562 32.148438 15.976562 31.769531 16.179688 31.292969 C 16.382812 30.8125 16.394531 30.277344 16.214844 29.789062 L 16.207031 29.773438 L 16.191406 29.78125 C 15.714844 29.988281 15.335938 30.371094 15.132812 30.851562 C 14.988281 31.1875 14.941406 31.550781 14.988281 31.910156 C 14.847656 31.40625 14.742188 30.894531 14.664062 30.375 C 15.167969 30.238281 15.597656 29.925781 15.871094 29.484375 C 16.148438 29.042969 16.246094 28.515625 16.144531 28.003906 L 16.140625 27.988281 L 16.125 27.992188 C 15.617188 28.125 15.1875 28.441406 14.910156 28.882812 C 14.722656 29.179688 14.617188 29.519531 14.605469 29.867188 C 14.554688 29.402344 14.527344 28.933594 14.527344 28.460938 C 14.527344 28.433594 14.527344 28.402344 14.527344 28.375 L 14.527344 28.335938 C 15.042969 28.28125 15.511719 28.039062 15.851562 27.644531 C 16.195312 27.25 16.371094 26.746094 16.351562 26.226562 L 16.351562 26.207031 L 16.332031 26.207031 C 15.8125 26.257812 15.335938 26.507812 14.996094 26.898438 C 14.769531 27.160156 14.617188 27.464844 14.542969 27.800781 C 14.570312 27.292969 14.621094 26.792969 14.707031 26.296875 C 14.742188 26.300781 14.78125 26.300781 14.816406 26.300781 C 15.292969 26.300781 15.753906 26.136719 16.125 25.828125 C 16.523438 25.492188 16.777344 25.023438 16.839844 24.5 L 16.84375 24.484375 L 16.824219 24.484375 C 16.304688 24.453125 15.792969 24.621094 15.394531 24.957031 C 15.121094 25.1875 14.917969 25.480469 14.792969 25.808594 C 14.898438 25.300781 15.03125 24.804688 15.199219 24.316406 C 15.339844 24.351562 15.484375 24.363281 15.628906 24.363281 C 15.996094 24.363281 16.355469 24.265625 16.679688 24.074219 C 17.128906 23.804688 17.449219 23.378906 17.589844 22.875 L 17.59375 22.863281 L 17.578125 22.859375 C 17.066406 22.746094 16.539062 22.832031 16.089844 23.101562 C 15.78125 23.285156 15.535156 23.546875 15.363281 23.851562 C 15.546875 23.371094 15.753906 22.902344 15.996094 22.441406 C 16.480469 22.628906 17.007812 22.625 17.488281 22.429688 C 17.976562 22.238281 18.363281 21.867188 18.578125 21.394531 L 18.585938 21.378906 L 18.570312 21.371094 C 18.085938 21.179688 17.550781 21.183594 17.066406 21.378906 C 16.746094 21.507812 16.472656 21.707031 16.257812 21.972656 C 16.511719 21.53125 16.789062 21.113281 17.085938 20.714844 C 17.535156 20.972656 18.054688 21.046875 18.558594 20.933594 C 19.066406 20.8125 19.507812 20.511719 19.796875 20.078125 L 19.808594 20.0625 L 19.792969 20.054688 C 19.339844 19.792969 18.8125 19.710938 18.304688 19.828125 C 17.984375 19.90625 17.683594 20.054688 17.433594 20.269531 C 17.625 20.039062 17.824219 19.808594 18.027344 19.59375 C 18.566406 19.550781 19.054688 19.328125 19.441406 18.960938 C 19.867188 18.550781 20.121094 18 20.148438 17.40625 L 20.148438 17.390625 L 20.132812 17.390625 C 19.539062 17.394531 18.976562 17.621094 18.550781 18.03125 C 18.175781 18.390625 17.9375 18.847656 17.863281 19.359375 C 17.699219 19.535156 17.535156 19.71875 17.371094 19.910156 C 17.488281 19.6875 17.558594 19.445312 17.585938 19.191406 C 17.640625 18.675781 17.496094 18.160156 17.179688 17.742188 L 17.171875 17.726562 L 17.15625 17.738281 C 16.757812 18.078125 16.507812 18.554688 16.457031 19.070312 C 16.402344 19.589844 16.546875 20.105469 16.859375 20.523438 L 16.867188 20.535156 C 16.621094 20.867188 16.382812 21.214844 16.164062 21.574219 C 16.234375 21.34375 16.269531 21.101562 16.253906 20.859375 C 16.230469 20.339844 16.007812 19.851562 15.625 19.492188 L 15.613281 19.480469 L 15.601562 19.496094 C 15.265625 19.894531 15.09375 20.402344 15.121094 20.921875 C 15.148438 21.441406 15.371094 21.929688 15.746094 22.289062 L 15.753906 22.296875 C 15.558594 22.664062 15.382812 23.042969 15.230469 23.417969 C 15.261719 23.1875 15.253906 22.953125 15.203125 22.722656 C 15.097656 22.210938 14.800781 21.765625 14.371094 21.46875 L 14.355469 21.457031 L 14.347656 21.472656 C 14.078125 21.917969 13.988281 22.445312 14.09375 22.957031 C 14.203125 23.464844 14.496094 23.910156 14.929688 24.210938 L 14.929688 24.214844 C 14.796875 24.605469 14.6875 25.007812 14.589844 25.414062 C 14.585938 25.175781 14.542969 24.941406 14.457031 24.71875 C 14.269531 24.230469 13.90625 23.839844 13.4375 23.613281 L 13.421875 23.605469 L 13.414062 23.621094 C 13.21875 24.105469 13.210938 24.636719 13.398438 25.125 C 13.582031 25.613281 13.945312 26.007812 14.417969 26.234375 L 14.425781 26.238281 C 14.355469 26.644531 14.304688 27.066406 14.277344 27.488281 C 14.238281 27.246094 14.15625 27.019531 14.035156 26.808594 C 13.777344 26.355469 13.359375 26.023438 12.859375 25.875 L 12.84375 25.871094 L 12.839844 25.886719 C 12.71875 26.398438 12.796875 26.925781 13.054688 27.378906 C 13.3125 27.832031 13.734375 28.164062 14.234375 28.3125 L 14.246094 28.316406 C 14.246094 28.371094 14.246094 28.417969 14.246094 28.464844 C 14.246094 28.828125 14.257812 29.199219 14.292969 29.566406 C 14.214844 29.339844 14.101562 29.128906 13.949219 28.941406 C 13.625 28.535156 13.15625 28.273438 12.640625 28.203125 L 12.621094 28.199219 L 12.621094 28.21875 C 12.582031 28.738281 12.738281 29.25 13.070312 29.65625 C 13.398438 30.058594 13.863281 30.324219 14.382812 30.394531 L 14.390625 30.394531 C 14.445312 30.800781 14.527344 31.207031 14.621094 31.605469 C 14.511719 31.402344 14.367188 31.21875 14.195312 31.058594 C 13.816406 30.722656 13.335938 30.535156 12.828125 30.535156 C 12.8125 30.53125 12.792969 30.53125 12.777344 30.53125 Z M 36.433594 18.023438 C 36.804688 18.382812 37.042969 18.839844 37.117188 19.351562 C 37.285156 19.527344 37.449219 19.710938 37.609375 19.902344 C 37.496094 19.679688 37.425781 19.4375 37.394531 19.1875 C 37.339844 18.667969 37.484375 18.152344 37.800781 17.734375 L 37.8125 17.71875 L 37.828125 17.730469 C 38.222656 18.070312 38.472656 18.546875 38.527344 19.0625 C 38.582031 19.582031 38.4375 20.097656 38.121094 20.515625 L 38.113281 20.527344 C 38.363281 20.859375 38.597656 21.210938 38.816406 21.566406 C 38.746094 21.335938 38.714844 21.09375 38.726562 20.855469 C 38.753906 20.332031 38.976562 19.847656 39.355469 19.484375 L 39.363281 19.472656 L 39.375 19.488281 C 39.714844 19.886719 39.886719 20.394531 39.855469 20.914062 C 39.832031 21.4375 39.609375 21.921875 39.230469 22.285156 L 39.222656 22.289062 C 39.417969 22.65625 39.59375 23.035156 39.75 23.414062 C 39.714844 23.179688 39.722656 22.945312 39.773438 22.714844 C 39.882812 22.203125 40.175781 21.757812 40.609375 21.460938 L 40.621094 21.449219 L 40.628906 21.464844 C 40.902344 21.910156 40.992188 22.4375 40.882812 22.949219 C 40.777344 23.457031 40.480469 23.90625 40.050781 24.203125 L 40.046875 24.207031 C 40.179688 24.597656 40.292969 25 40.390625 25.40625 C 40.390625 25.167969 40.433594 24.9375 40.523438 24.714844 C 40.707031 24.222656 41.070312 23.832031 41.542969 23.605469 L 41.554688 23.597656 L 41.5625 23.613281 C 41.761719 24.09375 41.769531 24.628906 41.582031 25.121094 C 41.394531 25.609375 41.03125 26 40.5625 26.226562 L 40.554688 26.230469 C 40.621094 26.640625 40.671875 27.058594 40.703125 27.480469 C 40.742188 27.238281 40.824219 27.011719 40.941406 26.800781 C 41.199219 26.347656 41.621094 26.019531 42.121094 25.867188 L 42.136719 25.863281 L 42.140625 25.882812 C 42.261719 26.390625 42.183594 26.917969 41.921875 27.371094 C 41.664062 27.824219 41.242188 28.15625 40.746094 28.308594 L 40.734375 28.308594 C 40.734375 28.363281 40.734375 28.410156 40.734375 28.457031 C 40.734375 28.820312 40.71875 29.191406 40.6875 29.5625 C 40.761719 29.332031 40.878906 29.121094 41.027344 28.9375 C 41.359375 28.53125 41.824219 28.265625 42.339844 28.199219 L 42.359375 28.195312 L 42.359375 28.214844 C 42.398438 28.734375 42.238281 29.246094 41.910156 29.652344 C 41.582031 30.058594 41.113281 30.320312 40.597656 30.390625 L 40.589844 30.390625 C 40.53125 30.796875 40.453125 31.203125 40.355469 31.601562 C 40.46875 31.398438 40.613281 31.214844 40.785156 31.054688 C 41.171875 30.707031 41.671875 30.515625 42.195312 30.53125 L 42.214844 30.53125 L 42.214844 30.550781 C 42.171875 31.070312 41.933594 31.546875 41.546875 31.898438 C 41.15625 32.25 40.660156 32.4375 40.132812 32.425781 L 40.128906 32.425781 C 40.007812 32.8125 39.867188 33.203125 39.707031 33.582031 C 39.847656 33.394531 40.019531 33.242188 40.210938 33.113281 C 40.652344 32.828125 41.175781 32.71875 41.691406 32.8125 L 41.707031 32.816406 L 41.703125 32.835938 C 41.582031 33.339844 41.273438 33.78125 40.835938 34.0625 C 40.394531 34.347656 39.871094 34.457031 39.355469 34.363281 C 39.332031 34.410156 39.3125 34.453125 39.285156 34.5 C 39.125 34.816406 38.945312 35.132812 38.746094 35.445312 C 38.914062 35.28125 39.113281 35.148438 39.328125 35.054688 C 39.804688 34.84375 40.339844 34.820312 40.835938 34.996094 L 40.847656 35 L 40.839844 35.015625 C 40.640625 35.496094 40.265625 35.882812 39.789062 36.09375 C 39.3125 36.304688 38.777344 36.328125 38.28125 36.15625 L 38.277344 36.152344 C 38.035156 36.488281 37.777344 36.820312 37.507812 37.132812 C 37.699219 36.996094 37.917969 36.890625 38.144531 36.832031 C 38.648438 36.695312 39.179688 36.753906 39.640625 37.003906 L 39.65625 37.011719 L 39.648438 37.023438 C 39.371094 37.46875 38.945312 37.789062 38.441406 37.921875 C 37.9375 38.058594 37.40625 38 36.945312 37.75 L 36.9375 37.746094 C 36.460938 38.234375 35.945312 38.6875 35.410156 39.085938 L 35.398438 39.097656 L 35.230469 38.878906 L 35.246094 38.867188 C 35.769531 38.472656 36.265625 38.039062 36.726562 37.566406 C 36.398438 37.164062 36.238281 36.660156 36.273438 36.140625 C 36.308594 35.621094 36.539062 35.136719 36.925781 34.78125 L 36.933594 34.773438 L 36.945312 34.785156 C 37.277344 35.191406 37.441406 35.699219 37.402344 36.21875 C 37.378906 36.570312 37.261719 36.90625 37.070312 37.199219 C 37.417969 36.816406 37.738281 36.417969 38.039062 36 C 37.652344 35.652344 37.414062 35.179688 37.371094 34.664062 C 37.324219 34.144531 37.476562 33.632812 37.800781 33.21875 L 37.8125 33.203125 L 37.824219 33.214844 C 38.214844 33.5625 38.457031 34.042969 38.5 34.558594 C 38.53125 34.917969 38.464844 35.269531 38.320312 35.589844 C 38.582031 35.195312 38.816406 34.785156 39.035156 34.367188 C 39.050781 34.324219 39.070312 34.289062 39.089844 34.25 C 38.65625 33.96875 38.34375 33.535156 38.21875 33.03125 C 38.09375 32.527344 38.160156 31.996094 38.417969 31.539062 L 38.425781 31.527344 L 38.441406 31.539062 C 38.878906 31.820312 39.191406 32.253906 39.320312 32.757812 C 39.40625 33.113281 39.402344 33.472656 39.304688 33.816406 C 39.519531 33.335938 39.707031 32.851562 39.859375 32.359375 C 39.386719 32.148438 39.007812 31.769531 38.808594 31.292969 C 38.601562 30.8125 38.59375 30.277344 38.773438 29.789062 L 38.777344 29.773438 L 38.792969 29.78125 C 39.269531 29.988281 39.648438 30.371094 39.851562 30.851562 C 39.996094 31.1875 40.042969 31.550781 39.996094 31.90625 C 40.136719 31.40625 40.246094 30.890625 40.320312 30.371094 C 39.816406 30.238281 39.390625 29.921875 39.113281 29.480469 C 38.835938 29.039062 38.738281 28.511719 38.84375 28 L 38.84375 27.984375 L 38.863281 27.988281 C 39.367188 28.121094 39.800781 28.4375 40.074219 28.878906 C 40.261719 29.175781 40.367188 29.519531 40.382812 29.863281 C 40.433594 29.398438 40.457031 28.933594 40.457031 28.457031 C 40.457031 28.429688 40.457031 28.398438 40.457031 28.371094 L 40.457031 28.332031 C 39.941406 28.277344 39.472656 28.035156 39.132812 27.640625 C 38.789062 27.246094 38.609375 26.742188 38.632812 26.222656 L 38.632812 26.203125 L 38.648438 26.203125 C 39.171875 26.253906 39.644531 26.503906 39.984375 26.894531 C 40.210938 27.15625 40.367188 27.460938 40.4375 27.796875 C 40.414062 27.289062 40.359375 26.789062 40.277344 26.292969 C 40.242188 26.296875 40.207031 26.296875 40.164062 26.296875 C 39.6875 26.296875 39.226562 26.132812 38.859375 25.824219 C 38.457031 25.488281 38.203125 25.019531 38.144531 24.496094 L 38.140625 24.480469 L 38.15625 24.480469 C 38.679688 24.449219 39.1875 24.617188 39.585938 24.953125 C 39.859375 25.183594 40.066406 25.480469 40.1875 25.804688 C 40.082031 25.300781 39.949219 24.804688 39.785156 24.3125 C 39.640625 24.347656 39.496094 24.359375 39.355469 24.359375 C 38.988281 24.359375 38.628906 24.265625 38.304688 24.070312 C 37.855469 23.800781 37.53125 23.375 37.390625 22.875 L 37.386719 22.859375 L 37.40625 22.855469 C 37.917969 22.742188 38.445312 22.828125 38.894531 23.097656 C 39.199219 23.28125 39.445312 23.542969 39.621094 23.851562 C 39.4375 23.367188 39.226562 22.902344 38.988281 22.441406 C 38.503906 22.628906 37.972656 22.625 37.492188 22.429688 C 37.007812 22.238281 36.617188 21.867188 36.402344 21.394531 L 36.394531 21.378906 L 36.410156 21.371094 C 36.894531 21.179688 37.429688 21.183594 37.917969 21.378906 C 38.234375 21.507812 38.507812 21.707031 38.726562 21.972656 C 38.472656 21.53125 38.191406 21.113281 37.898438 20.714844 C 37.449219 20.972656 36.929688 21.046875 36.425781 20.933594 C 35.914062 20.8125 35.476562 20.511719 35.183594 20.078125 L 35.175781 20.0625 L 35.1875 20.054688 C 35.640625 19.792969 36.167969 19.710938 36.675781 19.828125 C 37 19.90625 37.296875 20.054688 37.550781 20.273438 C 37.359375 20.042969 37.15625 19.8125 36.957031 19.597656 C 36.417969 19.550781 35.929688 19.332031 35.539062 18.964844 C 35.113281 18.554688 34.863281 18.003906 34.832031 17.410156 L 34.832031 17.394531 L 34.855469 17.382812 C 35.445312 17.386719 36.007812 17.617188 36.433594 18.023438 Z M 36.433594 18.023438 " fill-opacity="1" fill-rule="nonzero"/></g><g clip-path="url(#5f6dbf4ff1)"><path fill="#edebee" d="M 41.902344 30.53125 L 41.921875 30.53125 L 41.921875 30.550781 C 41.878906 31.070312 41.640625 31.546875 41.253906 31.898438 C 40.867188 32.25 40.363281 32.4375 39.839844 32.425781 C 39.714844 32.8125 39.574219 33.203125 39.414062 33.582031 C 39.554688 33.394531 39.722656 33.242188 39.921875 33.113281 C 40.359375 32.828125 40.882812 32.71875 41.398438 32.8125 L 41.414062 32.816406 L 41.410156 32.835938 C 41.289062 33.339844 40.980469 33.78125 40.542969 34.0625 C 40.105469 34.347656 39.578125 34.457031 39.066406 34.363281 L 39.0625 34.363281 C 39.039062 34.410156 39.015625 34.453125 38.992188 34.5 C 38.832031 34.816406 38.652344 35.132812 38.453125 35.445312 C 38.625 35.28125 38.820312 35.148438 39.035156 35.054688 C 39.515625 34.84375 40.046875 34.820312 40.542969 34.996094 L 40.558594 35 L 40.550781 35.015625 C 40.347656 35.496094 39.972656 35.882812 39.496094 36.09375 C 39.019531 36.304688 38.488281 36.328125 37.992188 36.15625 L 37.984375 36.152344 C 37.742188 36.488281 37.484375 36.820312 37.214844 37.132812 C 37.410156 36.996094 37.625 36.890625 37.855469 36.832031 C 38.355469 36.695312 38.890625 36.753906 39.347656 37.003906 L 39.363281 37.011719 L 39.355469 37.023438 C 39.078125 37.46875 38.652344 37.789062 38.148438 37.921875 C 37.644531 38.058594 37.113281 38 36.652344 37.75 L 36.648438 37.746094 C 36.167969 38.234375 35.65625 38.683594 35.121094 39.085938 L 35.105469 39.097656 L 34.941406 38.878906 L 34.953125 38.867188 C 35.480469 38.472656 35.976562 38.039062 36.433594 37.566406 C 36.109375 37.164062 35.945312 36.660156 35.980469 36.140625 C 36.019531 35.621094 36.246094 35.136719 36.632812 34.78125 L 36.644531 34.773438 L 36.652344 34.785156 C 36.984375 35.191406 37.144531 35.699219 37.109375 36.21875 C 37.085938 36.570312 36.96875 36.90625 36.78125 37.199219 C 37.125 36.816406 37.449219 36.417969 37.742188 36 C 37.359375 35.652344 37.117188 35.179688 37.074219 34.664062 C 37.027344 34.144531 37.183594 33.632812 37.503906 33.21875 L 37.515625 33.203125 L 37.527344 33.214844 C 37.917969 33.5625 38.160156 34.042969 38.203125 34.558594 C 38.234375 34.917969 38.171875 35.269531 38.023438 35.589844 C 38.285156 35.195312 38.523438 34.785156 38.738281 34.367188 C 38.757812 34.324219 38.773438 34.289062 38.796875 34.25 C 38.359375 33.96875 38.046875 33.535156 37.921875 33.03125 C 37.796875 32.527344 37.863281 31.992188 38.121094 31.539062 L 38.128906 31.527344 L 38.140625 31.539062 C 38.582031 31.820312 38.894531 32.253906 39.023438 32.757812 C 39.109375 33.113281 39.101562 33.472656 39 33.816406 C 39.214844 33.335938 39.402344 32.851562 39.558594 32.359375 C 39.082031 32.148438 38.707031 31.769531 38.503906 31.292969 C 38.300781 30.8125 38.289062 30.277344 38.46875 29.789062 L 38.476562 29.773438 L 38.492188 29.78125 C 38.96875 29.988281 39.34375 30.371094 39.550781 30.851562 C 39.695312 31.1875 39.742188 31.550781 39.695312 31.910156 C 39.835938 31.40625 39.941406 30.894531 40.019531 30.375 C 39.515625 30.238281 39.085938 29.925781 38.808594 29.484375 C 38.535156 29.042969 38.4375 28.515625 38.535156 28.003906 L 38.539062 27.988281 L 38.558594 27.992188 C 39.066406 28.125 39.496094 28.441406 39.773438 28.882812 C 39.960938 29.179688 40.0625 29.519531 40.078125 29.867188 C 40.128906 29.402344 40.152344 28.933594 40.152344 28.460938 C 40.152344 28.433594 40.152344 28.402344 40.152344 28.375 L 40.152344 28.335938 C 39.640625 28.28125 39.167969 28.039062 38.832031 27.644531 C 38.488281 27.25 38.3125 26.746094 38.332031 26.226562 L 38.332031 26.207031 L 38.351562 26.207031 C 38.871094 26.257812 39.34375 26.507812 39.6875 26.898438 C 39.914062 27.160156 40.066406 27.464844 40.140625 27.800781 C 40.113281 27.292969 40.0625 26.792969 39.976562 26.296875 C 39.941406 26.300781 39.902344 26.300781 39.867188 26.300781 C 39.390625 26.300781 38.929688 26.136719 38.558594 25.828125 C 38.160156 25.492188 37.90625 25.023438 37.84375 24.5 L 37.839844 24.484375 L 37.859375 24.484375 C 38.378906 24.453125 38.890625 24.621094 39.289062 24.957031 C 39.5625 25.1875 39.765625 25.480469 39.886719 25.808594 C 39.785156 25.300781 39.652344 24.804688 39.484375 24.316406 C 39.34375 24.351562 39.199219 24.363281 39.054688 24.363281 C 38.6875 24.363281 38.328125 24.265625 38.003906 24.074219 C 37.554688 23.804688 37.234375 23.378906 37.09375 22.875 L 37.089844 22.863281 L 37.105469 22.859375 C 37.617188 22.746094 38.144531 22.832031 38.59375 23.101562 C 38.898438 23.285156 39.148438 23.546875 39.320312 23.851562 C 39.136719 23.371094 38.929688 22.902344 38.6875 22.441406 C 38.203125 22.628906 37.675781 22.625 37.191406 22.429688 C 36.707031 22.238281 36.320312 21.867188 36.105469 21.394531 L 36.097656 21.378906 L 36.113281 21.371094 C 36.597656 21.179688 37.132812 21.183594 37.617188 21.378906 C 37.9375 21.507812 38.210938 21.707031 38.425781 21.972656 C 38.171875 21.53125 37.894531 21.113281 37.597656 20.714844 C 37.148438 20.972656 36.628906 21.046875 36.125 20.933594 C 35.617188 20.8125 35.175781 20.511719 34.886719 20.078125 L 34.875 20.0625 L 34.890625 20.054688 C 35.34375 19.792969 35.871094 19.710938 36.378906 19.828125 C 36.699219 19.90625 37 20.054688 37.25 20.269531 C 37.058594 20.039062 36.859375 19.808594 36.65625 19.59375 C 36.117188 19.550781 35.628906 19.328125 35.242188 18.960938 C 34.8125 18.550781 34.5625 18 34.535156 17.40625 L 34.535156 17.390625 L 34.550781 17.390625 C 35.144531 17.394531 35.707031 17.621094 36.132812 18.03125 C 36.507812 18.390625 36.742188 18.847656 36.820312 19.359375 C 36.984375 19.535156 37.148438 19.71875 37.3125 19.910156 C 37.195312 19.6875 37.125 19.445312 37.097656 19.191406 C 37.042969 18.675781 37.1875 18.160156 37.503906 17.742188 L 37.511719 17.726562 L 37.527344 17.738281 C 37.925781 18.078125 38.175781 18.554688 38.226562 19.070312 C 38.28125 19.589844 38.136719 20.105469 37.820312 20.523438 L 37.816406 20.535156 C 38.0625 20.867188 38.300781 21.214844 38.519531 21.574219 C 38.445312 21.34375 38.414062 21.101562 38.429688 20.859375 C 38.453125 20.339844 38.675781 19.851562 39.058594 19.492188 L 39.070312 19.480469 L 39.078125 19.496094 C 39.417969 19.894531 39.589844 20.402344 39.5625 20.921875 C 39.535156 21.441406 39.3125 21.929688 38.9375 22.289062 L 38.929688 22.296875 C 39.121094 22.664062 39.300781 23.042969 39.453125 23.417969 C 39.421875 23.1875 39.429688 22.953125 39.480469 22.722656 C 39.585938 22.210938 39.882812 21.765625 40.3125 21.46875 L 40.328125 21.457031 L 40.332031 21.472656 C 40.605469 21.917969 40.695312 22.445312 40.589844 22.957031 C 40.480469 23.464844 40.1875 23.910156 39.753906 24.210938 L 39.75 24.214844 C 39.882812 24.605469 39.996094 25.007812 40.09375 25.414062 C 40.097656 25.175781 40.140625 24.941406 40.226562 24.71875 C 40.414062 24.230469 40.777344 23.839844 41.246094 23.613281 L 41.261719 23.605469 L 41.269531 23.621094 C 41.464844 24.105469 41.472656 24.636719 41.285156 25.125 C 41.097656 25.613281 40.738281 26.007812 40.265625 26.234375 L 40.257812 26.238281 C 40.328125 26.644531 40.378906 27.066406 40.40625 27.488281 C 40.445312 27.246094 40.527344 27.019531 40.648438 26.808594 C 40.90625 26.355469 41.324219 26.023438 41.824219 25.875 L 41.839844 25.871094 L 41.84375 25.886719 C 41.964844 26.398438 41.886719 26.925781 41.628906 27.378906 C 41.367188 27.832031 40.949219 28.164062 40.449219 28.3125 L 40.4375 28.316406 C 40.4375 28.371094 40.4375 28.417969 40.4375 28.464844 C 40.4375 28.828125 40.421875 29.199219 40.390625 29.566406 C 40.46875 29.339844 40.582031 29.128906 40.734375 28.941406 C 41.058594 28.535156 41.527344 28.273438 42.042969 28.203125 L 42.0625 28.199219 L 42.0625 28.21875 C 42.101562 28.738281 41.945312 29.25 41.613281 29.65625 C 41.285156 30.058594 40.820312 30.324219 40.300781 30.394531 L 40.292969 30.394531 C 40.238281 30.800781 40.15625 31.207031 40.0625 31.605469 C 40.171875 31.402344 40.316406 31.21875 40.488281 31.058594 C 40.867188 30.722656 41.347656 30.535156 41.855469 30.535156 C 41.871094 30.53125 41.890625 30.53125 41.902344 30.53125 Z M 18.25 18.023438 C 17.878906 18.382812 17.640625 18.839844 17.566406 19.351562 C 17.398438 19.527344 17.234375 19.710938 17.074219 19.902344 C 17.1875 19.679688 17.257812 19.4375 17.289062 19.1875 C 17.34375 18.667969 17.199219 18.152344 16.882812 17.734375 L 16.871094 17.71875 L 16.855469 17.730469 C 16.460938 18.070312 16.210938 18.546875 16.15625 19.0625 C 16.101562 19.582031 16.246094 20.097656 16.5625 20.515625 L 16.570312 20.527344 C 16.320312 20.859375 16.085938 21.210938 15.863281 21.566406 C 15.9375 21.335938 15.96875 21.09375 15.953125 20.855469 C 15.929688 20.332031 15.707031 19.847656 15.328125 19.484375 L 15.320312 19.472656 L 15.308594 19.488281 C 14.96875 19.886719 14.796875 20.394531 14.828125 20.914062 C 14.851562 21.4375 15.074219 21.921875 15.453125 22.285156 L 15.457031 22.289062 C 15.265625 22.65625 15.089844 23.035156 14.933594 23.414062 C 14.964844 23.179688 14.960938 22.945312 14.910156 22.714844 C 14.800781 22.203125 14.507812 21.757812 14.074219 21.460938 L 14.0625 21.449219 L 14.054688 21.464844 C 13.78125 21.910156 13.691406 22.4375 13.796875 22.949219 C 13.90625 23.457031 14.199219 23.90625 14.632812 24.203125 L 14.636719 24.207031 C 14.503906 24.597656 14.390625 25 14.292969 25.40625 C 14.289062 25.167969 14.246094 24.9375 14.160156 24.714844 C 13.976562 24.222656 13.613281 23.832031 13.140625 23.605469 L 13.125 23.597656 L 13.121094 23.613281 C 12.921875 24.09375 12.914062 24.628906 13.101562 25.121094 C 13.289062 25.609375 13.652344 26 14.121094 26.226562 L 14.128906 26.230469 C 14.0625 26.640625 14.011719 27.058594 13.980469 27.480469 C 13.941406 27.238281 13.859375 27.011719 13.742188 26.800781 C 13.480469 26.347656 13.0625 26.019531 12.5625 25.867188 L 12.546875 25.863281 L 12.542969 25.882812 C 12.421875 26.390625 12.5 26.917969 12.761719 27.371094 C 13.019531 27.824219 13.4375 28.15625 13.9375 28.308594 L 13.949219 28.308594 C 13.949219 28.363281 13.949219 28.410156 13.949219 28.457031 C 13.949219 28.820312 13.964844 29.191406 13.996094 29.5625 C 13.921875 29.332031 13.804688 29.121094 13.65625 28.9375 C 13.324219 28.53125 12.859375 28.265625 12.34375 28.199219 L 12.324219 28.195312 L 12.324219 28.214844 C 12.285156 28.734375 12.445312 29.246094 12.773438 29.652344 C 13.101562 30.058594 13.570312 30.320312 14.085938 30.390625 L 14.09375 30.390625 C 14.152344 30.796875 14.230469 31.203125 14.328125 31.601562 C 14.214844 31.398438 14.070312 31.214844 13.898438 31.054688 C 13.511719 30.707031 13.011719 30.515625 12.488281 30.53125 L 12.46875 30.53125 L 12.46875 30.550781 C 12.511719 31.070312 12.75 31.546875 13.136719 31.898438 C 13.527344 32.25 14.023438 32.4375 14.550781 32.425781 L 14.554688 32.425781 C 14.675781 32.8125 14.816406 33.203125 14.976562 33.582031 C 14.835938 33.394531 14.664062 33.242188 14.46875 33.113281 C 14.03125 32.828125 13.507812 32.71875 12.992188 32.8125 L 12.976562 32.816406 L 12.980469 32.835938 C 13.101562 33.339844 13.410156 33.78125 13.847656 34.0625 C 14.289062 34.347656 14.8125 34.457031 15.324219 34.363281 L 15.328125 34.363281 C 15.351562 34.410156 15.371094 34.453125 15.398438 34.5 C 15.558594 34.816406 15.738281 35.132812 15.9375 35.445312 C 15.769531 35.28125 15.570312 35.148438 15.355469 35.054688 C 14.875 34.84375 14.34375 34.820312 13.847656 34.996094 L 13.835938 35 L 13.839844 35.015625 C 14.042969 35.496094 14.417969 35.882812 14.894531 36.09375 C 15.371094 36.304688 15.90625 36.328125 16.398438 36.15625 L 16.40625 36.152344 C 16.648438 36.488281 16.90625 36.820312 17.175781 37.132812 C 16.984375 36.996094 16.765625 36.890625 16.535156 36.832031 C 16.035156 36.695312 15.5 36.753906 15.042969 37.003906 L 15.027344 37.011719 L 15.035156 37.023438 C 15.3125 37.46875 15.738281 37.789062 16.242188 37.921875 C 16.746094 38.058594 17.277344 38 17.738281 37.75 L 17.746094 37.746094 C 18.222656 38.234375 18.734375 38.6875 19.273438 39.085938 L 19.285156 39.097656 L 19.453125 38.878906 L 19.4375 38.867188 C 18.914062 38.472656 18.417969 38.039062 17.957031 37.566406 C 18.285156 37.164062 18.445312 36.660156 18.410156 36.140625 C 18.375 35.621094 18.144531 35.136719 17.757812 34.78125 L 17.746094 34.773438 L 17.738281 34.785156 C 17.40625 35.191406 17.242188 35.699219 17.28125 36.21875 C 17.304688 36.570312 17.421875 36.90625 17.613281 37.199219 C 17.265625 36.816406 16.941406 36.417969 16.644531 36 C 17.027344 35.652344 17.269531 35.179688 17.3125 34.664062 C 17.359375 34.144531 17.207031 33.632812 16.882812 33.21875 L 16.871094 33.203125 L 16.859375 33.214844 C 16.46875 33.5625 16.226562 34.042969 16.183594 34.558594 C 16.152344 34.917969 16.21875 35.269531 16.363281 35.589844 C 16.101562 35.195312 15.863281 34.785156 15.648438 34.367188 C 15.632812 34.324219 15.613281 34.289062 15.589844 34.25 C 16.027344 33.96875 16.339844 33.535156 16.464844 33.03125 C 16.589844 32.527344 16.523438 31.996094 16.265625 31.539062 L 16.257812 31.527344 L 16.242188 31.539062 C 15.804688 31.820312 15.492188 32.253906 15.363281 32.757812 C 15.277344 33.113281 15.28125 33.472656 15.378906 33.816406 C 15.164062 33.335938 14.976562 32.851562 14.824219 32.359375 C 15.296875 32.148438 15.675781 31.769531 15.875 31.292969 C 16.082031 30.8125 16.089844 30.277344 15.910156 29.789062 L 15.90625 29.773438 L 15.890625 29.78125 C 15.410156 29.988281 15.035156 30.371094 14.828125 30.851562 C 14.6875 31.1875 14.640625 31.550781 14.6875 31.90625 C 14.546875 31.40625 14.4375 30.890625 14.363281 30.371094 C 14.867188 30.238281 15.292969 29.921875 15.570312 29.480469 C 15.847656 29.039062 15.945312 28.511719 15.839844 28 L 15.839844 27.984375 L 15.820312 27.988281 C 15.316406 28.121094 14.882812 28.4375 14.605469 28.878906 C 14.421875 29.175781 14.316406 29.519531 14.300781 29.863281 C 14.25 29.398438 14.226562 28.933594 14.226562 28.457031 C 14.226562 28.429688 14.226562 28.398438 14.226562 28.371094 L 14.226562 28.332031 C 14.738281 28.277344 15.210938 28.035156 15.550781 27.640625 C 15.894531 27.246094 16.074219 26.742188 16.050781 26.222656 L 16.050781 26.203125 L 16.035156 26.203125 C 15.511719 26.253906 15.039062 26.503906 14.695312 26.894531 C 14.46875 27.15625 14.316406 27.460938 14.246094 27.796875 C 14.269531 27.289062 14.324219 26.789062 14.40625 26.292969 C 14.441406 26.296875 14.476562 26.296875 14.515625 26.296875 C 14.996094 26.296875 15.457031 26.132812 15.824219 25.824219 C 16.222656 25.488281 16.480469 25.019531 16.539062 24.496094 L 16.542969 24.480469 L 16.527344 24.480469 C 16.003906 24.449219 15.496094 24.617188 15.097656 24.953125 C 14.824219 25.183594 14.617188 25.480469 14.496094 25.804688 C 14.601562 25.300781 14.734375 24.804688 14.898438 24.3125 C 15.042969 24.347656 15.1875 24.359375 15.328125 24.359375 C 15.695312 24.359375 16.054688 24.265625 16.378906 24.070312 C 16.828125 23.800781 17.152344 23.375 17.292969 22.875 L 17.296875 22.859375 L 17.277344 22.855469 C 16.765625 22.742188 16.238281 22.828125 15.789062 23.097656 C 15.484375 23.28125 15.234375 23.542969 15.0625 23.851562 C 15.246094 23.367188 15.457031 22.902344 15.695312 22.441406 C 16.179688 22.628906 16.710938 22.625 17.191406 22.429688 C 17.675781 22.238281 18.0625 21.867188 18.28125 21.394531 L 18.285156 21.378906 L 18.273438 21.371094 C 17.789062 21.179688 17.253906 21.183594 16.765625 21.378906 C 16.445312 21.507812 16.175781 21.707031 15.957031 21.972656 C 16.210938 21.53125 16.488281 21.113281 16.785156 20.714844 C 17.234375 20.972656 17.753906 21.046875 18.257812 20.933594 C 18.769531 20.8125 19.207031 20.511719 19.5 20.078125 L 19.507812 20.0625 L 19.496094 20.054688 C 19.042969 19.792969 18.511719 19.710938 18.007812 19.828125 C 17.683594 19.90625 17.386719 20.054688 17.132812 20.273438 C 17.324219 20.042969 17.523438 19.8125 17.726562 19.597656 C 18.265625 19.550781 18.753906 19.332031 19.140625 18.964844 C 19.570312 18.554688 19.820312 18.003906 19.851562 17.410156 L 19.851562 17.394531 L 19.828125 17.382812 C 19.238281 17.386719 18.675781 17.617188 18.25 18.023438 Z M 18.25 18.023438 " fill-opacity="1" fill-rule="nonzero"/></g><g fill="#ededed" fill-opacity="1"><g transform="translate(18.119468, 44.029448)"><g><path d="M 1.828125 -2.125 L 1.234375 -2.125 L 1.234375 -2.34375 C 1.234375 -2.375 1.222656 -2.394531 1.203125 -2.40625 C 1.191406 -2.425781 1.171875 -2.4375 1.140625 -2.4375 L 0.90625 -2.4375 C 0.875 -2.4375 0.847656 -2.425781 0.828125 -2.40625 C 0.816406 -2.394531 0.8125 -2.375 0.8125 -2.34375 L 0.8125 -1.84375 C 0.8125 -1.8125 0.816406 -1.785156 0.828125 -1.765625 C 0.847656 -1.753906 0.875 -1.75 0.90625 -1.75 L 1.296875 -1.75 C 1.671875 -1.738281 1.859375 -1.539062 1.859375 -1.15625 L 1.859375 -0.546875 C 1.859375 -0.148438 1.671875 0.046875 1.296875 0.046875 L 0.78125 0.046875 C 0.40625 0.046875 0.21875 -0.148438 0.21875 -0.546875 L 0.21875 -0.84375 L 0.8125 -0.84375 L 0.8125 -0.515625 C 0.8125 -0.492188 0.816406 -0.472656 0.828125 -0.453125 C 0.847656 -0.441406 0.875 -0.4375 0.90625 -0.4375 L 1.171875 -0.4375 C 1.203125 -0.4375 1.222656 -0.441406 1.234375 -0.453125 C 1.253906 -0.472656 1.265625 -0.492188 1.265625 -0.515625 L 1.265625 -1.09375 C 1.265625 -1.113281 1.253906 -1.128906 1.234375 -1.140625 C 1.222656 -1.160156 1.203125 -1.171875 1.171875 -1.171875 L 0.78125 -1.171875 C 0.40625 -1.171875 0.21875 -1.367188 0.21875 -1.765625 L 0.21875 -2.34375 C 0.21875 -2.726562 0.40625 -2.921875 0.78125 -2.921875 L 1.265625 -2.921875 C 1.640625 -2.921875 1.828125 -2.726562 1.828125 -2.34375 Z M 1.828125 -2.125 "/></g></g></g><g fill="#ededed" fill-opacity="1"><g transform="translate(20.351272, 44.029448)"><g><path d="M 1.921875 -2.34375 L 1.921875 -0.546875 C 1.921875 -0.148438 1.734375 0.046875 1.359375 0.046875 L 0.78125 0.046875 C 0.40625 0.046875 0.21875 -0.148438 0.21875 -0.546875 L 0.21875 -2.34375 C 0.21875 -2.726562 0.40625 -2.921875 0.78125 -2.921875 L 1.359375 -2.921875 C 1.734375 -2.921875 1.921875 -2.726562 1.921875 -2.34375 Z M 1.296875 -0.46875 L 1.296875 -2.40625 C 1.296875 -2.4375 1.285156 -2.457031 1.265625 -2.46875 C 1.253906 -2.488281 1.238281 -2.5 1.21875 -2.5 L 0.9375 -2.5 C 0.90625 -2.5 0.878906 -2.488281 0.859375 -2.46875 C 0.847656 -2.457031 0.84375 -2.4375 0.84375 -2.40625 L 0.84375 -0.46875 C 0.84375 -0.445312 0.847656 -0.425781 0.859375 -0.40625 C 0.878906 -0.394531 0.90625 -0.390625 0.9375 -0.390625 L 1.21875 -0.390625 C 1.238281 -0.390625 1.253906 -0.394531 1.265625 -0.40625 C 1.285156 -0.425781 1.296875 -0.445312 1.296875 -0.46875 Z M 1.296875 -0.46875 "/></g></g></g><g fill="#ededed" fill-opacity="1"><g transform="translate(22.698897, 44.029448)"><g><path d="M 0.84375 -0.53125 L 1.53125 -0.53125 L 1.53125 0 L 0.21875 0 L 0.21875 -2.875 L 0.84375 -2.875 Z M 0.84375 -0.53125 "/></g></g></g><g fill="#ededed" fill-opacity="1"><g transform="translate(24.489691, 44.029448)"><g><path d="M 1.25 -2.875 L 1.875 -2.875 L 1.875 -0.546875 C 1.875 -0.148438 1.691406 0.046875 1.328125 0.046875 L 0.765625 0.046875 C 0.398438 0.046875 0.21875 -0.148438 0.21875 -0.546875 L 0.21875 -2.875 L 0.84375 -2.875 L 0.84375 -0.484375 C 0.84375 -0.460938 0.847656 -0.441406 0.859375 -0.421875 C 0.878906 -0.410156 0.898438 -0.40625 0.921875 -0.40625 L 1.171875 -0.40625 C 1.191406 -0.40625 1.207031 -0.410156 1.21875 -0.421875 C 1.238281 -0.441406 1.25 -0.460938 1.25 -0.484375 Z M 1.25 -2.875 "/></g></g></g><g fill="#ededed" fill-opacity="1"><g transform="translate(26.761587, 44.029448)"><g><path d="M 0.0625 -2.34375 L 0.0625 -2.875 L 1.609375 -2.875 L 1.609375 -2.34375 L 1.15625 -2.34375 L 1.15625 0 L 0.53125 0 L 0.53125 -2.34375 Z M 0.0625 -2.34375 "/></g></g></g><g fill="#ededed" fill-opacity="1"><g transform="translate(28.632566, 44.029448)"><g><path d="M 0.84375 -2.875 L 0.84375 0 L 0.21875 0 L 0.21875 -2.875 Z M 0.84375 -2.875 "/></g></g></g><g fill="#ededed" fill-opacity="1"><g transform="translate(29.911078, 44.029448)"><g><path d="M 1.921875 -2.34375 L 1.921875 -0.546875 C 1.921875 -0.148438 1.734375 0.046875 1.359375 0.046875 L 0.78125 0.046875 C 0.40625 0.046875 0.21875 -0.148438 0.21875 -0.546875 L 0.21875 -2.34375 C 0.21875 -2.726562 0.40625 -2.921875 0.78125 -2.921875 L 1.359375 -2.921875 C 1.734375 -2.921875 1.921875 -2.726562 1.921875 -2.34375 Z M 1.296875 -0.46875 L 1.296875 -2.40625 C 1.296875 -2.4375 1.285156 -2.457031 1.265625 -2.46875 C 1.253906 -2.488281 1.238281 -2.5 1.21875 -2.5 L 0.9375 -2.5 C 0.90625 -2.5 0.878906 -2.488281 0.859375 -2.46875 C 0.847656 -2.457031 0.84375 -2.4375 0.84375 -2.40625 L 0.84375 -0.46875 C 0.84375 -0.445312 0.847656 -0.425781 0.859375 -0.40625 C 0.878906 -0.394531 0.90625 -0.390625 0.9375 -0.390625 L 1.21875 -0.390625 C 1.238281 -0.390625 1.253906 -0.394531 1.265625 -0.40625 C 1.285156 -0.425781 1.296875 -0.445312 1.296875 -0.46875 Z M 1.296875 -0.46875 "/></g></g></g><g fill="#ededed" fill-opacity="1"><g transform="translate(32.258702, 44.029448)"><g><path d="M 1.875 0 L 1.25 0 L 1.25 -2.390625 C 1.25 -2.410156 1.238281 -2.429688 1.21875 -2.453125 C 1.207031 -2.472656 1.191406 -2.484375 1.171875 -2.484375 L 0.921875 -2.484375 C 0.898438 -2.484375 0.878906 -2.472656 0.859375 -2.453125 C 0.847656 -2.429688 0.84375 -2.410156 0.84375 -2.390625 L 0.84375 0 L 0.21875 0 L 0.21875 -2.34375 C 0.21875 -2.726562 0.398438 -2.921875 0.765625 -2.921875 L 1.328125 -2.921875 C 1.691406 -2.921875 1.875 -2.726562 1.875 -2.34375 Z M 1.875 0 "/></g></g></g><g fill="#ededed" fill-opacity="1"><g transform="translate(34.521688, 44.029448)"><g><path d="M 1.828125 -2.125 L 1.234375 -2.125 L 1.234375 -2.34375 C 1.234375 -2.375 1.222656 -2.394531 1.203125 -2.40625 C 1.191406 -2.425781 1.171875 -2.4375 1.140625 -2.4375 L 0.90625 -2.4375 C 0.875 -2.4375 0.847656 -2.425781 0.828125 -2.40625 C 0.816406 -2.394531 0.8125 -2.375 0.8125 -2.34375 L 0.8125 -1.84375 C 0.8125 -1.8125 0.816406 -1.785156 0.828125 -1.765625 C 0.847656 -1.753906 0.875 -1.75 0.90625 -1.75 L 1.296875 -1.75 C 1.671875 -1.738281 1.859375 -1.539062 1.859375 -1.15625 L 1.859375 -0.546875 C 1.859375 -0.148438 1.671875 0.046875 1.296875 0.046875 L 0.78125 0.046875 C 0.40625 0.046875 0.21875 -0.148438 0.21875 -0.546875 L 0.21875 -0.84375 L 0.8125 -0.84375 L 0.8125 -0.515625 C 0.8125 -0.492188 0.816406 -0.472656 0.828125 -0.453125 C 0.847656 -0.441406 0.875 -0.4375 0.90625 -0.4375 L 1.171875 -0.4375 C 1.203125 -0.4375 1.222656 -0.441406 1.234375 -0.453125 C 1.253906 -0.472656 1.265625 -0.492188 1.265625 -0.515625 L 1.265625 -1.09375 C 1.265625 -1.113281 1.253906 -1.128906 1.234375 -1.140625 C 1.222656 -1.160156 1.203125 -1.171875 1.171875 -1.171875 L 0.78125 -1.171875 C 0.40625 -1.171875 0.21875 -1.367188 0.21875 -1.765625 L 0.21875 -2.34375 C 0.21875 -2.726562 0.40625 -2.921875 0.78125 -2.921875 L 1.265625 -2.921875 C 1.640625 -2.921875 1.828125 -2.726562 1.828125 -2.34375 Z M 1.828125 -2.125 "/></g></g></g><g clip-path="url(#7c153c8a6d)"><path fill="#ededed" d="M 22.019531 47.015625 C 22.019531 47.1875 21.957031 47.335938 21.835938 47.457031 C 21.714844 47.578125 21.566406 47.640625 21.394531 47.640625 C 21.222656 47.640625 21.074219 47.578125 20.953125 47.457031 C 20.828125 47.335938 20.769531 47.1875 20.769531 47.015625 C 20.769531 46.84375 20.828125 46.695312 20.953125 46.574219 C 21.074219 46.449219 21.222656 46.390625 21.394531 46.390625 C 21.566406 46.390625 21.714844 46.449219 21.835938 46.574219 C 21.957031 46.695312 22.019531 46.84375 22.019531 47.015625 Z M 22.019531 47.015625 " fill-opacity="1" fill-rule="nonzero"/></g><g clip-path="url(#73e3c56b7a)"><path fill="#ededed" d="M 33.914062 47.015625 C 33.914062 47.1875 33.855469 47.335938 33.730469 47.457031 C 33.609375 47.578125 33.460938 47.640625 33.289062 47.640625 C 33.117188 47.640625 32.96875 47.578125 32.847656 47.457031 C 32.726562 47.335938 32.664062 47.1875 32.664062 47.015625 C 32.664062 46.84375 32.726562 46.695312 32.847656 46.574219 C 32.96875 46.449219 33.117188 46.390625 33.289062 46.390625 C 33.460938 46.390625 33.609375 46.449219 33.730469 46.574219 C 33.855469 46.695312 33.914062 46.84375 33.914062 47.015625 Z M 33.914062 47.015625 " fill-opacity="1" fill-rule="nonzero"/></g><path fill="#f8fbf8" d="M 30.042969 30.867188 L 30.496094 30.867188 C 30.671875 30.867188 30.847656 30.835938 31.011719 30.765625 C 31.175781 30.699219 31.324219 30.601562 31.449219 30.472656 C 31.578125 30.347656 31.675781 30.199219 31.742188 30.035156 C 31.8125 29.871094 31.84375 29.699219 31.84375 29.519531 C 31.84375 29.394531 31.800781 29.289062 31.714844 29.199219 C 31.625 29.113281 31.519531 29.066406 31.394531 29.066406 L 29.144531 29.066406 C 29.019531 29.066406 28.914062 29.113281 28.824219 29.199219 C 28.738281 29.289062 28.695312 29.394531 28.695312 29.519531 C 28.695312 29.699219 28.726562 29.871094 28.796875 30.035156 C 28.867188 30.199219 28.964844 30.347656 29.089844 30.472656 C 29.214844 30.601562 29.363281 30.699219 29.527344 30.765625 C 29.691406 30.835938 29.867188 30.867188 30.042969 30.867188 Z M 30.042969 30.867188 " fill-opacity="1" fill-rule="nonzero"/><path fill="#f8fbf8" d="M 24.191406 30.867188 L 24.640625 30.867188 C 24.820312 30.867188 24.992188 30.835938 25.160156 30.765625 C 25.324219 30.699219 25.46875 30.601562 25.597656 30.472656 C 25.722656 30.347656 25.820312 30.199219 25.890625 30.035156 C 25.957031 29.871094 25.992188 29.699219 25.992188 29.519531 C 25.992188 29.394531 25.949219 29.289062 25.859375 29.199219 C 25.773438 29.113281 25.667969 29.066406 25.542969 29.066406 L 23.292969 29.066406 C 23.167969 29.066406 23.0625 29.113281 22.972656 29.199219 C 22.886719 29.289062 22.839844 29.394531 22.839844 29.519531 C 22.839844 29.699219 22.875 29.871094 22.945312 30.035156 C 23.011719 30.199219 23.109375 30.347656 23.238281 30.472656 C 23.363281 30.601562 23.511719 30.699219 23.675781 30.765625 C 23.839844 30.835938 24.011719 30.867188 24.191406 30.867188 Z M 24.191406 30.867188 " fill-opacity="1" fill-rule="nonzero"/><g clip-path="url(#e691c021fb)"><path fill="#f8fbf8" d="M 20.140625 29.519531 C 20.140625 33.488281 23.375 36.722656 27.34375 36.722656 C 31.3125 36.722656 34.546875 33.488281 34.546875 29.519531 L 34.546875 26.816406 L 20.140625 26.816406 Z M 28.242188 34.019531 L 26.441406 34.019531 C 26.320312 34.019531 26.210938 33.976562 26.125 33.886719 C 26.035156 33.800781 25.992188 33.695312 25.992188 33.570312 C 25.992188 33.445312 26.035156 33.339844 26.125 33.25 C 26.210938 33.164062 26.320312 33.121094 26.441406 33.121094 L 28.242188 33.121094 C 28.367188 33.121094 28.472656 33.164062 28.5625 33.25 C 28.648438 33.339844 28.695312 33.445312 28.695312 33.570312 C 28.695312 33.695312 28.648438 33.800781 28.5625 33.886719 C 28.472656 33.976562 28.367188 34.019531 28.242188 34.019531 Z M 23.292969 28.167969 L 25.542969 28.167969 C 25.828125 28.167969 26.085938 28.253906 26.320312 28.417969 C 26.550781 28.582031 26.714844 28.800781 26.8125 29.066406 L 27.875 29.066406 C 27.96875 28.800781 28.132812 28.582031 28.367188 28.417969 C 28.601562 28.253906 28.859375 28.167969 29.144531 28.167969 L 31.394531 28.167969 C 31.574219 28.167969 31.746094 28.203125 31.910156 28.269531 C 32.078125 28.339844 32.222656 28.4375 32.351562 28.5625 C 32.476562 28.691406 32.574219 28.835938 32.644531 29 C 32.710938 29.167969 32.746094 29.339844 32.746094 29.519531 C 32.746094 29.816406 32.6875 30.105469 32.574219 30.378906 C 32.457031 30.65625 32.296875 30.898438 32.085938 31.109375 C 31.875 31.320312 31.632812 31.484375 31.355469 31.597656 C 31.078125 31.710938 30.792969 31.769531 30.496094 31.769531 L 30.042969 31.769531 C 29.785156 31.769531 29.53125 31.726562 29.289062 31.640625 C 29.042969 31.550781 28.820312 31.425781 28.621094 31.261719 C 28.417969 31.097656 28.253906 30.90625 28.117188 30.683594 C 27.984375 30.460938 27.890625 30.222656 27.839844 29.96875 L 26.847656 29.96875 C 26.796875 30.222656 26.703125 30.460938 26.570312 30.683594 C 26.433594 30.90625 26.265625 31.097656 26.066406 31.261719 C 25.867188 31.425781 25.640625 31.550781 25.398438 31.640625 C 25.152344 31.726562 24.902344 31.769531 24.640625 31.769531 L 24.191406 31.769531 C 23.894531 31.769531 23.605469 31.710938 23.332031 31.597656 C 23.054688 31.484375 22.8125 31.320312 22.601562 31.109375 C 22.390625 30.898438 22.226562 30.65625 22.113281 30.378906 C 22 30.105469 21.941406 29.816406 21.941406 29.519531 C 21.941406 29.339844 21.976562 29.167969 22.042969 29 C 22.113281 28.835938 22.210938 28.691406 22.335938 28.5625 C 22.464844 28.4375 22.609375 28.339844 22.773438 28.269531 C 22.941406 28.203125 23.113281 28.167969 23.292969 28.167969 Z M 23.292969 28.167969 " fill-opacity="1" fill-rule="nonzero"/></g><g clip-path="url(#40db08cba1)"><path fill="#f8fbf8" d="M 32.734375 19.054688 C 32.675781 18.828125 32.527344 18.714844 32.296875 18.714844 L 28.695312 18.714844 C 28.542969 18.714844 28.421875 18.773438 28.332031 18.894531 L 27.34375 20.214844 L 26.351562 18.894531 C 26.261719 18.773438 26.144531 18.714844 25.992188 18.714844 L 22.390625 18.714844 C 22.160156 18.714844 22.011719 18.828125 21.953125 19.054688 L 21.015625 22.316406 L 33.722656 22.316406 Z M 32.734375 19.054688 " fill-opacity="1" fill-rule="nonzero"/></g><g clip-path="url(#f3131b4d92)"><path fill="#f8fbf8" d="M 35.898438 25.015625 L 34.449219 25.015625 L 33.996094 23.214844 L 20.757812 23.214844 L 20.238281 25.015625 L 18.789062 25.015625 C 18.664062 25.015625 18.558594 25.0625 18.472656 25.148438 C 18.382812 25.238281 18.339844 25.34375 18.339844 25.46875 C 18.339844 25.589844 18.382812 25.695312 18.472656 25.785156 C 18.558594 25.875 18.664062 25.917969 18.789062 25.917969 L 35.898438 25.917969 C 36.019531 25.917969 36.128906 25.875 36.214844 25.785156 C 36.304688 25.695312 36.347656 25.589844 36.347656 25.46875 C 36.347656 25.34375 36.304688 25.238281 36.214844 25.148438 C 36.128906 25.0625 36.019531 25.015625 35.898438 25.015625 Z M 35.898438 25.015625 " fill-opacity="1" fill-rule="nonzero"/></g></svg>